<svg width="23" height="22" viewBox="0 0 23 22" fill="none" xmlns="http://www.w3.org/2000/svg">
<path d="M13.1987 2.88545C13.9439 2.07808 14.3165 1.6744 14.7124 1.43893C15.6677 0.870759 16.8441 0.853091 17.8154 1.39232C18.2179 1.6158 18.6019 2.00812 19.37 2.79276C20.1381 3.5774 20.5222 3.96972 20.7409 4.38093C21.2688 5.37312 21.2515 6.57479 20.6953 7.5507C20.4648 7.95516 20.0696 8.33578 19.2793 9.09701L9.87563 18.1543C8.37788 19.5969 7.629 20.3182 6.69306 20.6837C5.75712 21.0493 4.7282 21.0224 2.67036 20.9686L2.39038 20.9613C1.76391 20.9449 1.45067 20.9367 1.26859 20.73C1.0865 20.5234 1.11136 20.2043 1.16108 19.5662L1.18808 19.2197C1.32801 17.4235 1.39797 16.5255 1.74871 15.7182C2.09944 14.9109 2.70444 14.2555 3.91443 12.9445L13.1987 2.88545Z" stroke="#000" stroke-width="1.8" stroke-linejoin="round"/>
<path d="M12.125 3L19.125 10" stroke="#000" stroke-width="1.8" stroke-linejoin="round"/>
<path d="M13.125 21L21.125 21" stroke="#000" stroke-width="1.8" stroke-linecap="round" stroke-linejoin="round"/>
</svg>
