<svg width="36" height="36" viewBox="0 0 36 36" fill="none" xmlns="http://www.w3.org/2000/svg">
<path d="M23.25 18C23.25 20.8995 20.8995 23.25 18 23.25C15.1005 23.25 12.75 20.8995 12.75 18C12.75 15.1005 15.1005 12.75 18 12.75C20.8995 12.75 23.25 15.1005 23.25 18Z" stroke="#000" stroke-width="2"/>
<path d="M32.004 21.0365C32.5119 20.9471 32.7659 20.9025 32.8829 20.7631C33 20.6236 33 20.3992 33 19.9503V16.0499C33 15.601 33 15.3765 32.8829 15.2371C32.7659 15.0976 32.5119 15.053 32.004 14.9637C28.6288 14.3703 26.5023 10.8171 27.6654 7.61762C27.8444 7.12503 27.934 6.87874 27.8707 6.70706C27.8075 6.53539 27.6103 6.4234 27.2158 6.19942L23.759 4.23678C23.3733 4.0178 23.1805 3.90831 23.0026 3.94023C22.8246 3.97216 22.6611 4.16658 22.3339 4.55543C20.0901 7.22262 15.9122 7.22252 13.6684 4.55529C13.3413 4.16644 13.1778 3.97201 12.9998 3.94009C12.8219 3.90817 12.629 4.01766 12.2434 4.23663L8.7866 6.19927C8.39212 6.42325 8.19488 6.53523 8.13165 6.7069C8.06842 6.87856 8.15794 7.12487 8.33697 7.61749C9.49979 10.817 7.37162 14.3703 3.99595 14.9637C3.48807 15.053 3.23412 15.0976 3.11706 15.2371C3 15.3765 3 15.601 3 16.0499L3 19.9503C3 20.3992 3 20.6236 3.11706 20.7631C3.23411 20.9025 3.48806 20.9471 3.99595 21.0364C7.37124 21.6299 9.49772 25.1831 8.33464 28.3825C8.15557 28.8751 8.06604 29.1214 8.12927 29.2931C8.19249 29.4648 8.38974 29.5767 8.78423 29.8007L12.241 31.7634C12.6267 31.9823 12.8195 32.0918 12.9975 32.0599C13.1754 32.028 13.339 31.8335 13.666 31.4447C15.9109 28.7757 20.0914 28.7756 22.3363 31.4445C22.6634 31.8334 22.8269 32.0278 23.0049 32.0598C23.1829 32.0917 23.3757 31.9822 23.7614 31.7632L27.2181 29.8006C27.6126 29.5766 27.8099 29.4646 27.8731 29.2929C27.9363 29.1212 27.8468 28.8749 27.6677 28.3824C26.5044 25.183 28.6291 21.6299 32.004 21.0365Z" stroke="#000" stroke-width="2" stroke-linecap="round"/>
</svg>
