<svg width="21" height="22" viewBox="0 0 21 22" fill="none" xmlns="http://www.w3.org/2000/svg">
<path d="M11.875 1H12.1477C15.4089 1 17.0395 1 18.1719 1.79784C18.4964 2.02643 18.7844 2.29752 19.0273 2.60289C19.875 3.66867 19.875 5.20336 19.875 8.27273V10.8182C19.875 13.7814 19.875 15.2629 19.4061 16.4462C18.6522 18.3486 17.0579 19.8491 15.0366 20.5586C13.7794 21 12.2052 21 9.05682 21C7.25775 21 6.35822 21 5.63978 20.7478C4.48479 20.3424 3.57375 19.4849 3.14296 18.3979C2.875 17.7217 2.875 16.8751 2.875 15.1818V11" stroke="#000" stroke-width="1.8" stroke-linecap="round" stroke-linejoin="round"/>
<path d="M19.875 11C19.875 12.8409 18.3826 14.3333 16.5417 14.3333C15.8759 14.3333 15.091 14.2167 14.4436 14.3901C13.8685 14.5442 13.4192 14.9935 13.2651 15.5686C13.0917 16.216 13.2083 17.0009 13.2083 17.6667C13.2083 19.5076 11.7159 21 9.875 21" stroke="#000" stroke-width="1.8" stroke-linecap="round" stroke-linejoin="round"/>
<path d="M9.875 5L1.875 5M5.875 1V9" stroke="#000" stroke-width="1.8" stroke-linecap="round"/>
</svg>
