<svg width="126" height="41" viewBox="0 0 126 41" fill="none" xmlns="http://www.w3.org/2000/svg">
<path d="M122.51 0.832827C123.979 0.370793 125.397 1.67187 125.063 3.17476L120.92 21.805C120.586 23.3079 118.75 23.8854 117.615 22.8446L103.553 9.94182C102.418 8.90096 102.836 7.02234 104.304 6.56031L122.51 0.832827Z" fill="#2D4CC9"/>
<path d="M14.0199 18.1818V22.7272H0.880684V18.1818H14.0199ZM3.86364 12.9545H9.91477V33.2954C9.91477 33.8541 10 34.2897 10.1705 34.6022C10.3409 34.9052 10.5777 35.1183 10.8807 35.2414C11.1932 35.3645 11.553 35.4261 11.9602 35.4261C12.2443 35.4261 12.5284 35.4024 12.8125 35.3551C13.0966 35.2982 13.3144 35.2556 13.4659 35.2272L14.4176 39.7301C14.1146 39.8248 13.6884 39.9337 13.1392 40.0568C12.59 40.1893 11.9224 40.2698 11.1364 40.2982C9.67803 40.3551 8.39962 40.1609 7.30114 39.7159C6.21212 39.2708 5.36459 38.5795 4.75852 37.642C4.15246 36.7045 3.85417 35.5208 3.86364 34.0909V12.9545Z" fill="black"/>
<path d="M27.5852 40.4261C25.3788 40.4261 23.4706 39.9573 21.8608 39.0198C20.2604 38.0729 19.0246 36.7566 18.1534 35.071C17.2822 33.3759 16.8466 31.4109 16.8466 29.1761C16.8466 26.9223 17.2822 24.9526 18.1534 23.267C19.0246 21.5719 20.2604 20.2556 21.8608 19.3181C23.4706 18.3712 25.3788 17.8977 27.5852 17.8977C29.7917 17.8977 31.6951 18.3712 33.2955 19.3181C34.9053 20.2556 36.1458 21.5719 37.017 23.267C37.8883 24.9526 38.3239 26.9223 38.3239 29.1761C38.3239 31.4109 37.8883 33.3759 37.017 35.071C36.1458 36.7566 34.9053 38.0729 33.2955 39.0198C31.6951 39.9573 29.7917 40.4261 27.5852 40.4261ZM27.6136 35.7386C28.6174 35.7386 29.4555 35.4545 30.1278 34.8863C30.8002 34.3087 31.3068 33.5227 31.6477 32.5284C31.9981 31.534 32.1733 30.4024 32.1733 29.1335C32.1733 27.8645 31.9981 26.7329 31.6477 25.7386C31.3068 24.7443 30.8002 23.9583 30.1278 23.3806C29.4555 22.803 28.6174 22.5141 27.6136 22.5141C26.6004 22.5141 25.7481 22.803 25.0568 23.3806C24.375 23.9583 23.8589 24.7443 23.5085 25.7386C23.1676 26.7329 22.9972 27.8645 22.9972 29.1335C22.9972 30.4024 23.1676 31.534 23.5085 32.5284C23.8589 33.5227 24.375 34.3087 25.0568 34.8863C25.7481 35.4545 26.6004 35.7386 27.6136 35.7386Z" fill="black"/>
<path d="M48.3097 27.3863V39.9999H42.2585V18.1818H48.0256V22.0312H48.2813C48.7642 20.7623 49.5739 19.7585 50.7102 19.0198C51.8466 18.2717 53.2244 17.8977 54.8438 17.8977C56.3589 17.8977 57.6799 18.2291 58.8068 18.892C59.9337 19.5549 60.8097 20.5018 61.4347 21.7329C62.0597 22.9545 62.3722 24.4128 62.3722 26.1079V39.9999H56.321V27.1874C56.3305 25.8522 55.9896 24.8105 55.2983 24.0624C54.607 23.3049 53.6553 22.9261 52.4432 22.9261C51.6288 22.9261 50.9091 23.1013 50.2841 23.4516C49.6686 23.802 49.1856 24.3134 48.8352 24.9857C48.4943 25.6486 48.3191 26.4488 48.3097 27.3863Z" fill="black"/>
<path d="M77.0845 40.4261C74.8402 40.4261 72.9084 39.9715 71.2891 39.0624C69.6792 38.1439 68.4387 36.8465 67.5675 35.1704C66.6963 33.4848 66.2607 31.4914 66.2607 29.1903C66.2607 26.946 66.6963 24.9763 67.5675 23.2812C68.4387 21.5861 69.665 20.2651 71.2465 19.3181C72.8374 18.3712 74.7029 17.8977 76.843 17.8977C78.2824 17.8977 79.6224 18.1297 80.8629 18.5937C82.1129 19.0482 83.2019 19.7348 84.13 20.6534C85.0675 21.5719 85.7966 22.7272 86.3175 24.1193C86.8383 25.5018 87.0987 27.1212 87.0987 28.9772V30.6391H68.6754V26.8891H81.4027C81.4027 26.0179 81.2133 25.2462 80.8345 24.5738C80.4557 23.9015 79.9302 23.3759 79.2578 22.9971C78.5949 22.6088 77.8232 22.4147 76.9425 22.4147C76.0239 22.4147 75.2095 22.6278 74.4993 23.0539C73.7985 23.4706 73.2493 24.034 72.8516 24.7443C72.4538 25.445 72.2502 26.2263 72.2408 27.088V30.6534C72.2408 31.7329 72.4396 32.6657 72.8374 33.4516C73.2446 34.2376 73.8175 34.8437 74.5561 35.2698C75.2947 35.696 76.1707 35.909 77.184 35.909C77.8563 35.909 78.4718 35.8143 79.0305 35.6249C79.5893 35.4355 80.0675 35.1515 80.4652 34.7727C80.8629 34.3939 81.166 33.9299 81.3743 33.3806L86.9709 33.7499C86.6868 35.0946 86.1044 36.2689 85.2237 37.2727C84.3525 38.267 83.2256 39.0435 81.843 39.6022C80.4699 40.1515 78.8838 40.4261 77.0845 40.4261Z" fill="black"/>
<path d="M109.201 24.4034L103.661 24.7443C103.567 24.2708 103.363 23.8446 103.05 23.4659C102.738 23.0776 102.326 22.7698 101.815 22.5426C101.313 22.3058 100.711 22.1874 100.011 22.1874C99.0732 22.1874 98.2824 22.3863 97.6385 22.784C96.9946 23.1723 96.6726 23.6931 96.6726 24.3465C96.6726 24.8674 96.8809 25.3077 97.2976 25.6676C97.7143 26.0274 98.4292 26.3162 99.4425 26.534L103.391 27.3295C105.513 27.7651 107.094 28.4658 108.136 29.4318C109.177 30.3977 109.698 31.6666 109.698 33.2386C109.698 34.6685 109.277 35.9232 108.434 37.0028C107.601 38.0823 106.455 38.9251 104.996 39.5312C103.548 40.1278 101.876 40.4261 99.9822 40.4261C97.094 40.4261 94.7928 39.8248 93.0788 38.6221C91.3743 37.41 90.3752 35.7623 90.0817 33.6789L96.0334 33.3664C96.2133 34.2471 96.6489 34.9194 97.3402 35.3835C98.0315 35.838 98.9169 36.0653 99.9965 36.0653C101.057 36.0653 101.909 35.8617 102.553 35.4545C103.207 35.0378 103.538 34.5028 103.548 33.8494C103.538 33.3001 103.306 32.8503 102.852 32.4999C102.397 32.1401 101.696 31.8655 100.749 31.6761L96.9709 30.9232C94.8402 30.4971 93.254 29.7585 92.2124 28.7073C91.1802 27.6562 90.6641 26.3162 90.6641 24.6874C90.6641 23.2859 91.0429 22.0785 91.8004 21.0653C92.5675 20.052 93.6423 19.2708 95.0249 18.7215C96.4169 18.1723 98.0457 17.8977 99.9112 17.8977C102.667 17.8977 104.835 18.4801 106.417 19.6448C108.008 20.8096 108.936 22.3958 109.201 24.4034Z" fill="black"/>
</svg>
