<svg width="141" height="45" viewBox="0 0 141 45" fill="none" xmlns="http://www.w3.org/2000/svg">
<g clip-path="url(#clip0_1945_1304)">
<path d="M6.35078 30.8H13.9008V38H6.35078V30.8Z" fill="#2D4CC9"/>
<path d="M21.6673 8.615H27.9223V15.32H33.9973V20.54H27.9223V29.495C27.9223 31.7 29.0923 32.735 31.1173 32.735H33.9973V38H30.2623C25.0423 38 21.6673 35.03 21.6673 29.765V20.54H17.3023V15.32H21.6673V8.615ZM47.7796 38.36C40.8046 38.36 35.8096 33.41 35.8096 26.66C35.8096 19.91 40.8046 14.96 47.7796 14.96C54.7546 14.96 59.7496 19.91 59.7496 26.66C59.7496 33.41 54.7546 38.36 47.7796 38.36ZM42.1096 26.66C42.1096 30.395 44.4046 32.96 47.7796 32.96C51.1546 32.96 53.4496 30.395 53.4496 26.66C53.4496 22.88 51.1546 20.315 47.7796 20.315C44.4046 20.315 42.1096 22.88 42.1096 26.66ZM63.171 38V15.32H69.471V18.47C70.731 16.265 73.251 14.96 76.356 14.96C81.486 14.96 84.816 18.65 84.816 23.87V38H78.516V25.265C78.516 22.52 76.761 20.54 74.151 20.54C71.406 20.54 69.471 22.655 69.471 25.58V38H63.171ZM88.2363 26.615C88.2363 20.855 91.7463 14.96 99.4413 14.96C107.451 14.96 110.646 20.855 110.646 26.03C110.646 26.885 110.601 27.56 110.556 28.055H94.2663C94.7163 31.25 96.7413 33.23 99.8913 33.23C102.411 33.23 104.076 32.24 104.571 30.305H110.691C109.791 35.21 105.471 38.36 99.8913 38.36C92.1963 38.36 88.2363 32.33 88.2363 26.615ZM94.3563 24.095H104.391C104.211 21.575 102.456 19.55 99.4413 19.55C96.6063 19.55 94.8963 20.945 94.3563 24.095ZM122.164 38.36C116.629 38.36 112.849 35.255 112.624 30.35H118.024C118.249 32.375 119.824 33.635 122.164 33.635C124.099 33.635 125.449 32.69 125.449 31.43C125.449 26.795 113.254 31.34 113.254 21.8C113.254 17.795 116.719 14.96 121.354 14.96C126.799 14.96 130.489 17.885 130.714 22.34H125.269C124.999 20.405 123.244 19.37 121.534 19.37C119.779 19.37 118.564 20.135 118.564 21.575C118.564 26.21 130.984 20.945 130.984 31.205C130.984 35.525 127.474 38.36 122.164 38.36Z" fill="#475569"/>
<path d="M140.165 5.65685L138.308 17.3121L128.51 7.51417L140.165 5.65685Z" fill="#2D4CC9"/>
</g>
<defs>
<clipPath id="clip0_1945_1304">
<rect width="140" height="45" fill="white" transform="translate(0.5)"/>
</clipPath>
</defs>
</svg>
