<svg width="29" height="37" viewBox="0 0 29 37" fill="none" xmlns="http://www.w3.org/2000/svg">
<path d="M2.58848 23.8454C3.38839 24.3212 5.74511 25.5981 8.04619 25.5981C10.8683 25.5981 13.7811 23.679 13.8101 23.6593C13.9507 23.5652 17.2916 21.365 20.7484 21.365C22.1547 21.365 23.9521 22.1573 25.5799 23.0629L19.6898 15.7029V6.36882C20.922 5.93169 21.8068 4.75458 21.8068 3.37494C21.8068 1.62428 20.3824 0.200195 18.6312 0.200195H10.1631C8.41195 0.200195 6.98751 1.62428 6.98751 3.37494C6.98751 4.75458 7.87237 5.93169 9.10452 6.36882V15.7029L2.58848 23.8454ZM20.7485 27.7146C20.1645 27.7146 19.6899 28.1889 19.6899 28.7729C19.6899 29.3568 20.1643 29.8311 20.7485 29.8311C21.3325 29.8311 21.8071 29.3568 21.8071 28.7729C21.8071 28.1889 21.3325 27.7146 20.7485 27.7146ZM27.8916 27.001C26.3815 25.9057 22.8766 23.4817 20.7485 23.4817C17.9264 23.4817 15.0135 25.4008 14.9846 25.4205C14.844 25.5145 11.5031 27.7148 8.04631 27.7148C5.12737 27.7148 2.3141 26.1576 1.41756 25.6128C0.920748 26.6183 0.636719 27.7251 0.636719 28.8547C0.636719 32.8944 3.92393 36.1808 7.9647 36.1808H20.8302C24.871 36.1808 28.1582 32.8944 28.1582 28.8547C28.1581 28.2245 28.0507 27.6055 27.8916 27.001ZM14.3973 31.9477C13.8128 31.9477 13.3388 31.4739 13.3388 30.8894C13.3388 30.3049 13.8127 29.8312 14.3973 29.8312C14.982 29.8312 15.4559 30.3049 15.4559 30.8894C15.4559 31.4738 14.9818 31.9477 14.3973 31.9477ZM20.7485 31.9477C18.9974 31.9477 17.5729 30.5236 17.5729 28.773C17.5729 27.0223 18.9974 25.5982 20.7485 25.5982C22.4996 25.5982 23.9241 27.0223 23.9241 28.773C23.9241 30.5236 22.4995 31.9477 20.7485 31.9477Z" fill="white"/>
</svg>
