<svg width="23" height="38" viewBox="0 0 23 38" fill="none" xmlns="http://www.w3.org/2000/svg">
<path fill-rule="evenodd" clip-rule="evenodd" d="M0.962891 2.99082C0.962891 2.15272 0.962891 1.73367 1.08651 1.39859C1.28902 0.849665 1.72173 0.416946 2.27066 0.214438C2.60574 0.0908203 3.02479 0.0908203 3.86289 0.0908203H19.1356C19.9737 0.0908203 20.3928 0.0908203 20.7279 0.214438C21.2768 0.416946 21.7095 0.849665 21.912 1.39859C22.0356 1.73367 22.0356 2.15272 22.0356 2.99082V34.8999C22.0356 35.738 22.0356 36.1571 21.912 36.4921C21.7095 37.0411 21.2768 37.4738 20.7279 37.6763C20.3928 37.7999 19.9737 37.7999 19.1356 37.7999H3.86289C3.02479 37.7999 2.60574 37.7999 2.27066 37.6763C1.72173 37.4738 1.28902 37.0411 1.08651 36.4921C0.962891 36.1571 0.962891 35.738 0.962891 34.8999V2.99082ZM4.29016 4.86809C4.29016 4.44904 4.29016 4.23952 4.35197 4.07198C4.45323 3.79751 4.66959 3.58116 4.94405 3.4799C5.11159 3.41809 5.32111 3.41809 5.74016 3.41809H17.2583C17.6774 3.41809 17.8869 3.41809 18.0545 3.4799C18.3289 3.58116 18.5453 3.79751 18.6465 4.07198C18.7083 4.23952 18.7083 4.44904 18.7083 4.86809V10.8408C18.7083 11.2599 18.7083 11.4694 18.6465 11.6369C18.5453 11.9114 18.3289 12.1278 18.0545 12.229C17.8869 12.2908 17.6774 12.2908 17.2583 12.2908H5.74016C5.32111 12.2908 5.11159 12.2908 4.94405 12.229C4.66959 12.1278 4.45323 11.9114 4.35197 11.6369C4.29016 11.4694 4.29016 11.2599 4.29016 10.8408V4.86809ZM4.2975 16.3379C4.29016 16.4233 4.29016 16.5246 4.29016 16.7272C4.29016 16.9298 4.29016 17.0311 4.2975 17.1165C4.38076 18.0859 5.1496 18.8548 6.11901 18.938C6.20443 18.9454 6.30574 18.9454 6.50834 18.9454H16.4902C16.6928 18.9454 16.7941 18.9454 16.8795 18.938C17.8489 18.8548 18.6177 18.0859 18.701 17.1165C18.7083 17.0311 18.7083 16.9298 18.7083 16.7272C18.7083 16.5246 18.7083 16.4233 18.701 16.3379C18.6177 15.3684 17.8489 14.5996 16.8795 14.5163C16.7941 14.509 16.6928 14.509 16.4902 14.509H6.50835C6.30574 14.509 6.20443 14.509 6.11901 14.5163C5.1496 14.5996 4.38076 15.3684 4.2975 16.3379Z" fill="white"/>
</svg>
