<svg width="35" height="35" viewBox="0 0 35 35" fill="none" xmlns="http://www.w3.org/2000/svg">
<path d="M34.2826 3.0472C33.0633 0.369744 29.583 -0.373348 26.6841 0.947062C25.4223 1.51676 24.0668 2.56933 23.0121 3.76788C22.3413 3.37887 21.4988 3.30093 20.7392 3.63851L18.3961 4.71077C17.891 4.94174 17.667 5.53817 17.8949 6.04472L21.2284 13.4055C21.4557 13.9097 22.0512 14.1418 22.5633 13.912L24.9142 12.8575C25.6846 12.5027 26.1854 11.8182 26.327 11.0507C27.8197 11.0507 29.5187 10.7596 30.8543 10.1483C33.6943 8.86042 35.529 5.78462 34.2826 3.0472ZM7.38021 24.5567C9.0514 24.5567 10.411 23.1962 10.411 21.5236C10.411 20.2312 8.87288 17.8636 8.21194 16.9047C7.83305 16.3577 6.92748 16.3577 6.5486 16.9047C5.88765 17.8634 4.34958 20.2311 4.34958 21.5236C4.34947 23.1962 5.70902 24.5567 7.38021 24.5567ZM25.5643 26.5788H15.4621C14.9036 26.5788 14.4518 27.0311 14.4518 27.5899C14.4518 28.1477 13.999 28.6009 13.4416 28.6009C12.8842 28.6009 12.4313 28.1477 12.4313 27.5899C12.4313 27.031 11.9795 26.5788 11.4211 26.5788H1.31884C0.760411 26.5788 0.308594 27.0311 0.308594 27.5899V33.6561C0.308594 34.215 0.760411 34.6672 1.31884 34.6672H25.5643C26.1227 34.6672 26.5746 34.2149 26.5746 33.6561V27.5899C26.5746 27.031 26.1227 26.5788 25.5643 26.5788ZM7.24607 16.1C9.19397 16.8348 11.4005 16.7683 13.2937 15.9124L18.9751 13.3281L16.4714 7.79851L10.7987 10.3723C8.87004 11.256 7.3991 12.8269 6.65714 14.7977C6.45871 15.3227 6.72746 15.9059 7.24607 16.1Z" fill="white"/>
</svg>
