<svg width="36" height="36" viewBox="0 0 36 36" fill="none" xmlns="http://www.w3.org/2000/svg">
<path d="M19.5 3H19.9091C24.8009 3 27.2468 3 28.9454 4.19675C29.4321 4.53964 29.8641 4.94629 30.2284 5.40433C31.5 7.00301 31.5 9.30504 31.5 13.9091V17.7273C31.5 22.172 31.5 24.3944 30.7966 26.1694C29.6658 29.0229 27.2743 31.2737 24.2425 32.338C22.3566 33 19.9953 33 15.2727 33C12.5741 33 11.2248 33 10.1472 32.6217C8.41469 32.0135 7.04813 30.7274 6.40195 29.0968C6 28.0825 6 26.8126 6 24.2727V18" stroke="#000" stroke-width="2" stroke-linecap="round" stroke-linejoin="round"/>
<path d="M31.5 18C31.5 20.7614 29.2614 23 26.5 23C25.5013 23 24.3239 22.825 23.353 23.0852C22.4902 23.3164 21.8164 23.9902 21.5852 24.853C21.325 25.8239 21.5 27.0013 21.5 28C21.5 30.7614 19.2614 33 16.5 33" stroke="#000" stroke-width="2" stroke-linecap="round" stroke-linejoin="round"/>
<path d="M16.5 9L4.5 9M10.5 3V15" stroke="#000" stroke-width="2" stroke-linecap="round"/>
</svg>
