<svg width="21" height="22" viewBox="0 0 21 22" fill="none" xmlns="http://www.w3.org/2000/svg">
<path d="M17.875 4.5L17.2553 14.5251C17.0969 17.0864 17.0178 18.3671 16.3758 19.2879C16.0583 19.7431 15.6497 20.1273 15.1757 20.416C14.2171 21 12.934 21 10.3677 21C7.79812 21 6.5133 21 5.55405 20.4149C5.0798 20.1257 4.671 19.7408 4.35368 19.2848C3.71188 18.3626 3.63445 17.0801 3.47961 14.5152L2.875 4.5" stroke="#000" stroke-width="1.8" stroke-linecap="round"/>
<path d="M19.375 4.5H1.375" stroke="#000" stroke-width="1.8" stroke-linecap="round"/>
<path d="M7.375 10.7349H13.375" stroke="#000" stroke-width="1.8" stroke-linecap="round"/>
<path d="M14.4305 4.5L13.7479 3.09173C13.2944 2.15626 13.0676 1.68852 12.6765 1.39681C12.5898 1.3321 12.4979 1.27454 12.4018 1.2247C11.9687 1 11.4489 1 10.4093 1C9.34364 1 8.81079 1 8.37049 1.23412C8.27291 1.28601 8.17979 1.3459 8.09211 1.41317C7.69645 1.7167 7.47544 2.20155 7.03342 3.17126L6.42773 4.5" stroke="#000" stroke-width="1.8" stroke-linecap="round"/>
<path d="M8.875 14.6543H11.875" stroke="#000" stroke-width="1.8" stroke-linecap="round"/>
</svg>
