<svg width="18" height="35" viewBox="0 0 18 35" fill="none" xmlns="http://www.w3.org/2000/svg">
<path d="M13.0851 3.22404C13.0851 1.53714 11.7129 0.164917 10.026 0.164917C8.33911 0.164917 6.96688 1.53714 6.96688 3.22404V4.24371H13.0851V3.22404ZM10.026 26.6774C9.46336 26.6774 9.00634 27.1344 9.00634 27.697C9.00634 28.2597 9.46336 28.7168 10.026 28.7168C10.5887 28.7168 11.0457 28.2598 11.0457 27.697C11.0457 27.1345 10.5887 26.6774 10.026 26.6774ZM13.0851 21.2731V6.28317H6.96688V21.2731C4.50025 22.4472 2.88797 24.9436 2.88797 27.697C2.88797 31.6326 6.09049 34.8351 10.026 34.8351C13.9615 34.8351 17.164 31.6326 17.164 27.697C17.1639 24.9436 15.5517 22.4472 13.0851 21.2731ZM10.026 30.7563C8.33911 30.7563 6.96688 29.3841 6.96688 27.6972C6.96688 26.0103 8.33911 24.638 10.026 24.638C11.7129 24.638 13.0851 26.0103 13.0851 27.6972C13.0851 29.3841 11.7129 30.7563 10.026 30.7563ZM1.8683 4.24371H3.90776C4.47144 4.24371 4.92743 3.78761 4.92743 3.22404C4.92743 2.66048 4.47132 2.20437 3.90776 2.20437H1.8683C1.30463 2.20437 0.848633 2.66048 0.848633 3.22404C0.848633 3.78772 1.30463 4.24371 1.8683 4.24371ZM1.8683 8.32262H3.90776C4.47144 8.32262 4.92743 7.86652 4.92743 7.30295C4.92743 6.73928 4.47132 6.28328 3.90776 6.28328H1.8683C1.30463 6.28328 0.848633 6.73939 0.848633 7.30295C0.848633 7.86652 1.30463 8.32262 1.8683 8.32262ZM1.8683 12.4014H3.90776C4.47144 12.4014 4.92743 11.9453 4.92743 11.3817C4.92743 10.8182 4.47132 10.3621 3.90776 10.3621H1.8683C1.30463 10.3621 0.848633 10.8182 0.848633 11.3817C0.848633 11.9453 1.30463 12.4014 1.8683 12.4014ZM1.8683 16.4803H3.90776C4.47144 16.4803 4.92743 16.0242 4.92743 15.4607C4.92743 14.897 4.47132 14.441 3.90776 14.441H1.8683C1.30463 14.441 0.848633 14.8971 0.848633 15.4607C0.848633 16.0242 1.30463 16.4803 1.8683 16.4803ZM4.92743 19.5395C4.92743 18.9758 4.47132 18.5198 3.90776 18.5198H1.8683C1.30463 18.5198 0.848633 18.9759 0.848633 19.5395C0.848633 20.103 1.30474 20.5591 1.8683 20.5591H3.90776C4.47132 20.5591 4.92743 20.103 4.92743 19.5395Z"/>
</svg>
