<svg width="22" height="31" viewBox="0 0 22 31" fill="none" xmlns="http://www.w3.org/2000/svg">
<path d="M2.99713 11.4044C3.67187 10.0405 4.48103 8.61314 5.42349 7.12533C7.83873 3.31236 10.2183 0.56411 10.3183 0.448951C10.4897 0.251898 10.7384 0.138672 11 0.138672C11.2616 0.138672 11.5102 0.251898 11.6817 0.448951C11.7818 0.56411 14.1613 3.31236 16.5765 7.12533C17.519 8.61314 18.328 10.0404 19.0029 11.4044C18.4619 11.9196 17.6709 12.2132 16.8151 12.2132C15.9211 12.2132 15.0977 11.8927 14.5564 11.3341C14.2017 10.9681 13.6135 10.9681 13.2588 11.3341C12.7174 11.8928 11.8941 12.2132 11.0001 12.2132C10.1061 12.2132 9.28275 11.8927 8.74141 11.3341C8.3867 10.9681 7.79854 10.9681 7.44384 11.3341C6.90239 11.8928 6.07916 12.2132 5.18514 12.2132C4.32907 12.2132 3.53817 11.9196 2.99713 11.4044ZM21.5273 20.3608C21.5251 26.1508 16.8025 30.8613 11 30.8613C5.19748 30.8613 0.474901 26.1508 0.472657 20.3608C0.471841 18.231 1.05653 15.7994 2.21693 13.0919C3.04119 13.6838 4.08634 14.0134 5.18494 14.0134C6.25682 14.0134 7.2778 13.6997 8.09247 13.1346C8.90714 13.6997 9.92812 14.0134 11 14.0134C12.0719 14.0134 13.0929 13.6997 13.9075 13.1346C14.7222 13.6997 15.7432 14.0134 16.8151 14.0134C17.9137 14.0134 18.9587 13.6838 19.7831 13.0919C20.9435 15.7994 21.5282 18.2309 21.5273 20.3608Z"/>
</svg>
